<mxfile host="app.diagrams.net" agent="Mozilla/5.0 (Windows NT 10.0; Win64; x64) AppleWebKit/537.36 (KHTML, like Gecko) Chrome/135.0.0.0 Safari/537.36" version="26.2.14">
  <diagram name="Page-1" id="t68Ckwi67tr0DEUjELV5">
    <mxGraphModel dx="2597" dy="1002" grid="1" gridSize="10" guides="1" tooltips="1" connect="1" arrows="1" fold="1" page="1" pageScale="1" pageWidth="850" pageHeight="1100" math="0" shadow="0">
      <root>
        <mxCell id="0" />
        <mxCell id="1" parent="0" />
        <mxCell id="V6hUc9vTks-GCPqnXJYq-1" value="USER" style="whiteSpace=wrap;html=1;align=center;" vertex="1" parent="1">
          <mxGeometry x="395" y="160" width="100" height="40" as="geometry" />
        </mxCell>
        <mxCell id="V6hUc9vTks-GCPqnXJYq-2" value="PLACE" style="shape=rhombus;perimeter=rhombusPerimeter;whiteSpace=wrap;html=1;align=center;" vertex="1" parent="1">
          <mxGeometry x="375" y="300" width="120" height="60" as="geometry" />
        </mxCell>
        <mxCell id="V6hUc9vTks-GCPqnXJYq-3" value="ORDER" style="whiteSpace=wrap;html=1;align=center;" vertex="1" parent="1">
          <mxGeometry x="395" y="440" width="100" height="40" as="geometry" />
        </mxCell>
        <mxCell id="V6hUc9vTks-GCPqnXJYq-4" value="" style="fontSize=12;html=1;endArrow=ERone;endFill=1;rounded=0;entryX=0.43;entryY=0.95;entryDx=0;entryDy=0;entryPerimeter=0;" edge="1" parent="1" source="V6hUc9vTks-GCPqnXJYq-2" target="V6hUc9vTks-GCPqnXJYq-1">
          <mxGeometry width="100" height="100" relative="1" as="geometry">
            <mxPoint x="440" y="290" as="sourcePoint" />
            <mxPoint x="440" y="250" as="targetPoint" />
          </mxGeometry>
        </mxCell>
        <mxCell id="V6hUc9vTks-GCPqnXJYq-6" value="" style="fontSize=12;html=1;endArrow=ERmany;rounded=0;entryX=0.43;entryY=-0.05;entryDx=0;entryDy=0;entryPerimeter=0;" edge="1" parent="1" source="V6hUc9vTks-GCPqnXJYq-2" target="V6hUc9vTks-GCPqnXJYq-3">
          <mxGeometry width="100" height="100" relative="1" as="geometry">
            <mxPoint x="425" y="354" as="sourcePoint" />
            <mxPoint x="440" y="300" as="targetPoint" />
          </mxGeometry>
        </mxCell>
        <mxCell id="V6hUc9vTks-GCPqnXJYq-7" value="FILE" style="shape=rhombus;perimeter=rhombusPerimeter;whiteSpace=wrap;html=1;align=center;" vertex="1" parent="1">
          <mxGeometry x="640" y="150" width="120" height="60" as="geometry" />
        </mxCell>
        <mxCell id="V6hUc9vTks-GCPqnXJYq-8" value="" style="fontSize=12;html=1;endArrow=ERone;endFill=1;rounded=0;exitX=0;exitY=0.5;exitDx=0;exitDy=0;" edge="1" parent="1" source="V6hUc9vTks-GCPqnXJYq-7" target="V6hUc9vTks-GCPqnXJYq-1">
          <mxGeometry width="100" height="100" relative="1" as="geometry">
            <mxPoint x="610" y="400" as="sourcePoint" />
            <mxPoint x="500" y="180" as="targetPoint" />
          </mxGeometry>
        </mxCell>
        <mxCell id="V6hUc9vTks-GCPqnXJYq-9" value="COMPLAIN" style="whiteSpace=wrap;html=1;align=center;" vertex="1" parent="1">
          <mxGeometry x="650" y="310" width="100" height="40" as="geometry" />
        </mxCell>
        <mxCell id="V6hUc9vTks-GCPqnXJYq-10" value="" style="fontSize=12;html=1;endArrow=ERone;endFill=1;rounded=0;exitX=0.5;exitY=1;exitDx=0;exitDy=0;" edge="1" parent="1" source="V6hUc9vTks-GCPqnXJYq-7">
          <mxGeometry width="100" height="100" relative="1" as="geometry">
            <mxPoint x="610" y="400" as="sourcePoint" />
            <mxPoint x="700" y="310" as="targetPoint" />
          </mxGeometry>
        </mxCell>
        <mxCell id="V6hUc9vTks-GCPqnXJYq-11" value="U_ID" style="ellipse;whiteSpace=wrap;html=1;align=center;" vertex="1" parent="1">
          <mxGeometry x="295" y="80" width="100" height="40" as="geometry" />
        </mxCell>
        <mxCell id="V6hUc9vTks-GCPqnXJYq-12" value="U-NAME" style="ellipse;whiteSpace=wrap;html=1;align=center;" vertex="1" parent="1">
          <mxGeometry x="385" y="50" width="100" height="40" as="geometry" />
        </mxCell>
        <mxCell id="V6hUc9vTks-GCPqnXJYq-13" value="U-ADDRESS" style="ellipse;whiteSpace=wrap;html=1;align=center;" vertex="1" parent="1">
          <mxGeometry x="485" y="80" width="100" height="40" as="geometry" />
        </mxCell>
        <mxCell id="V6hUc9vTks-GCPqnXJYq-14" value="" style="endArrow=none;html=1;rounded=0;exitX=0.654;exitY=0.958;exitDx=0;exitDy=0;exitPerimeter=0;" edge="1" parent="1" source="V6hUc9vTks-GCPqnXJYq-11" target="V6hUc9vTks-GCPqnXJYq-1">
          <mxGeometry relative="1" as="geometry">
            <mxPoint x="390" y="140" as="sourcePoint" />
            <mxPoint x="550" y="140" as="targetPoint" />
          </mxGeometry>
        </mxCell>
        <mxCell id="V6hUc9vTks-GCPqnXJYq-15" value="" style="endArrow=none;html=1;rounded=0;exitX=0.5;exitY=1;exitDx=0;exitDy=0;entryX=0.355;entryY=0.011;entryDx=0;entryDy=0;entryPerimeter=0;" edge="1" parent="1" source="V6hUc9vTks-GCPqnXJYq-12" target="V6hUc9vTks-GCPqnXJYq-1">
          <mxGeometry relative="1" as="geometry">
            <mxPoint x="390" y="140" as="sourcePoint" />
            <mxPoint x="550" y="140" as="targetPoint" />
          </mxGeometry>
        </mxCell>
        <mxCell id="V6hUc9vTks-GCPqnXJYq-16" value="" style="endArrow=none;html=1;rounded=0;entryX=0.5;entryY=1;entryDx=0;entryDy=0;" edge="1" parent="1" target="V6hUc9vTks-GCPqnXJYq-13">
          <mxGeometry relative="1" as="geometry">
            <mxPoint x="430" y="160" as="sourcePoint" />
            <mxPoint x="550" y="140" as="targetPoint" />
          </mxGeometry>
        </mxCell>
        <mxCell id="V6hUc9vTks-GCPqnXJYq-17" value="GIVE" style="shape=rhombus;perimeter=rhombusPerimeter;whiteSpace=wrap;html=1;align=center;" vertex="1" parent="1">
          <mxGeometry x="150" y="210" width="120" height="60" as="geometry" />
        </mxCell>
        <mxCell id="V6hUc9vTks-GCPqnXJYq-18" value="" style="fontSize=12;html=1;endArrow=ERone;endFill=1;rounded=0;entryX=0;entryY=0.25;entryDx=0;entryDy=0;" edge="1" parent="1" target="V6hUc9vTks-GCPqnXJYq-1">
          <mxGeometry width="100" height="100" relative="1" as="geometry">
            <mxPoint x="210" y="210" as="sourcePoint" />
            <mxPoint x="390" y="180" as="targetPoint" />
            <Array as="points">
              <mxPoint x="210" y="170" />
              <mxPoint x="300" y="170" />
            </Array>
          </mxGeometry>
        </mxCell>
        <mxCell id="V6hUc9vTks-GCPqnXJYq-20" value="RATING" style="whiteSpace=wrap;html=1;align=center;" vertex="1" parent="1">
          <mxGeometry x="160" y="380" width="100" height="40" as="geometry" />
        </mxCell>
        <mxCell id="V6hUc9vTks-GCPqnXJYq-21" value="" style="fontSize=12;html=1;endArrow=ERone;endFill=1;rounded=0;entryX=0.5;entryY=0;entryDx=0;entryDy=0;exitX=0.5;exitY=1;exitDx=0;exitDy=0;" edge="1" parent="1" source="V6hUc9vTks-GCPqnXJYq-17" target="V6hUc9vTks-GCPqnXJYq-20">
          <mxGeometry width="100" height="100" relative="1" as="geometry">
            <mxPoint x="460" y="390" as="sourcePoint" />
            <mxPoint x="560" y="290" as="targetPoint" />
          </mxGeometry>
        </mxCell>
        <mxCell id="V6hUc9vTks-GCPqnXJYq-22" value="BELONG TO" style="shape=rhombus;perimeter=rhombusPerimeter;whiteSpace=wrap;html=1;align=center;" vertex="1" parent="1">
          <mxGeometry x="150" y="490" width="120" height="60" as="geometry" />
        </mxCell>
        <mxCell id="V6hUc9vTks-GCPqnXJYq-24" value="" style="fontSize=12;html=1;endArrow=ERmany;rounded=0;" edge="1" parent="1" source="V6hUc9vTks-GCPqnXJYq-22" target="V6hUc9vTks-GCPqnXJYq-20">
          <mxGeometry width="100" height="100" relative="1" as="geometry">
            <mxPoint x="210" y="480" as="sourcePoint" />
            <mxPoint x="210" y="430" as="targetPoint" />
          </mxGeometry>
        </mxCell>
        <mxCell id="V6hUc9vTks-GCPqnXJYq-27" value="" style="edgeStyle=entityRelationEdgeStyle;fontSize=12;html=1;endArrow=ERone;endFill=1;rounded=0;exitX=1;exitY=0.5;exitDx=0;exitDy=0;entryX=0;entryY=0.5;entryDx=0;entryDy=0;" edge="1" parent="1" source="V6hUc9vTks-GCPqnXJYq-22" target="V6hUc9vTks-GCPqnXJYq-3">
          <mxGeometry width="100" height="100" relative="1" as="geometry">
            <mxPoint x="440" y="530" as="sourcePoint" />
            <mxPoint x="540" y="430" as="targetPoint" />
          </mxGeometry>
        </mxCell>
        <mxCell id="V6hUc9vTks-GCPqnXJYq-28" value="R-ID" style="ellipse;whiteSpace=wrap;html=1;align=center;" vertex="1" parent="1">
          <mxGeometry x="10" y="330" width="100" height="40" as="geometry" />
        </mxCell>
        <mxCell id="V6hUc9vTks-GCPqnXJYq-29" value="R-SCORE" style="ellipse;whiteSpace=wrap;html=1;align=center;" vertex="1" parent="1">
          <mxGeometry x="10" y="400" width="100" height="40" as="geometry" />
        </mxCell>
        <mxCell id="V6hUc9vTks-GCPqnXJYq-30" value="" style="endArrow=none;html=1;rounded=0;exitX=1;exitY=0.5;exitDx=0;exitDy=0;entryX=0;entryY=0.25;entryDx=0;entryDy=0;" edge="1" parent="1" source="V6hUc9vTks-GCPqnXJYq-28" target="V6hUc9vTks-GCPqnXJYq-20">
          <mxGeometry relative="1" as="geometry">
            <mxPoint x="370" y="310" as="sourcePoint" />
            <mxPoint x="530" y="310" as="targetPoint" />
          </mxGeometry>
        </mxCell>
        <mxCell id="V6hUc9vTks-GCPqnXJYq-31" value="" style="endArrow=none;html=1;rounded=0;exitX=1;exitY=0.5;exitDx=0;exitDy=0;entryX=0;entryY=0.5;entryDx=0;entryDy=0;" edge="1" parent="1" source="V6hUc9vTks-GCPqnXJYq-29" target="V6hUc9vTks-GCPqnXJYq-20">
          <mxGeometry relative="1" as="geometry">
            <mxPoint x="370" y="310" as="sourcePoint" />
            <mxPoint x="150" y="400" as="targetPoint" />
          </mxGeometry>
        </mxCell>
        <mxCell id="V6hUc9vTks-GCPqnXJYq-32" value="O-ID" style="ellipse;whiteSpace=wrap;html=1;align=center;" vertex="1" parent="1">
          <mxGeometry x="360" y="560" width="100" height="40" as="geometry" />
        </mxCell>
        <mxCell id="V6hUc9vTks-GCPqnXJYq-33" value="O-NAME" style="ellipse;whiteSpace=wrap;html=1;align=center;" vertex="1" parent="1">
          <mxGeometry x="430" y="590" width="100" height="40" as="geometry" />
        </mxCell>
        <mxCell id="V6hUc9vTks-GCPqnXJYq-36" value="O-DATE" style="ellipse;whiteSpace=wrap;html=1;align=center;" vertex="1" parent="1">
          <mxGeometry x="485" y="550" width="100" height="40" as="geometry" />
        </mxCell>
        <mxCell id="V6hUc9vTks-GCPqnXJYq-37" value="" style="endArrow=none;html=1;rounded=0;exitX=0.609;exitY=1.021;exitDx=0;exitDy=0;exitPerimeter=0;" edge="1" parent="1" source="V6hUc9vTks-GCPqnXJYq-3" target="V6hUc9vTks-GCPqnXJYq-32">
          <mxGeometry relative="1" as="geometry">
            <mxPoint x="400" y="460" as="sourcePoint" />
            <mxPoint x="560" y="460" as="targetPoint" />
          </mxGeometry>
        </mxCell>
        <mxCell id="V6hUc9vTks-GCPqnXJYq-38" value="" style="endArrow=none;html=1;rounded=0;" edge="1" parent="1" target="V6hUc9vTks-GCPqnXJYq-33">
          <mxGeometry relative="1" as="geometry">
            <mxPoint x="460" y="480" as="sourcePoint" />
            <mxPoint x="560" y="460" as="targetPoint" />
          </mxGeometry>
        </mxCell>
        <mxCell id="V6hUc9vTks-GCPqnXJYq-40" value="" style="endArrow=none;html=1;rounded=0;exitX=0.661;exitY=0.966;exitDx=0;exitDy=0;exitPerimeter=0;" edge="1" parent="1" source="V6hUc9vTks-GCPqnXJYq-3" target="V6hUc9vTks-GCPqnXJYq-36">
          <mxGeometry relative="1" as="geometry">
            <mxPoint x="400" y="460" as="sourcePoint" />
            <mxPoint x="560" y="460" as="targetPoint" />
          </mxGeometry>
        </mxCell>
        <mxCell id="V6hUc9vTks-GCPqnXJYq-41" value="FACE" style="shape=rhombus;perimeter=rhombusPerimeter;whiteSpace=wrap;html=1;align=center;" vertex="1" parent="1">
          <mxGeometry x="600" y="430" width="120" height="60" as="geometry" />
        </mxCell>
        <mxCell id="V6hUc9vTks-GCPqnXJYq-42" value="" style="fontSize=12;html=1;endArrow=ERone;endFill=1;rounded=0;entryX=1;entryY=0.5;entryDx=0;entryDy=0;exitX=0;exitY=0.5;exitDx=0;exitDy=0;" edge="1" parent="1" source="V6hUc9vTks-GCPqnXJYq-41" target="V6hUc9vTks-GCPqnXJYq-3">
          <mxGeometry width="100" height="100" relative="1" as="geometry">
            <mxPoint x="670" y="450" as="sourcePoint" />
            <mxPoint x="770" y="350" as="targetPoint" />
          </mxGeometry>
        </mxCell>
        <mxCell id="V6hUc9vTks-GCPqnXJYq-43" value="" style="fontSize=12;html=1;endArrow=ERmany;rounded=0;entryX=0.5;entryY=1;entryDx=0;entryDy=0;exitX=0.5;exitY=0;exitDx=0;exitDy=0;" edge="1" parent="1" source="V6hUc9vTks-GCPqnXJYq-41" target="V6hUc9vTks-GCPqnXJYq-9">
          <mxGeometry width="100" height="100" relative="1" as="geometry">
            <mxPoint x="670" y="450" as="sourcePoint" />
            <mxPoint x="770" y="350" as="targetPoint" />
            <Array as="points">
              <mxPoint x="700" y="430" />
            </Array>
          </mxGeometry>
        </mxCell>
        <mxCell id="V6hUc9vTks-GCPqnXJYq-44" value="C-ID" style="ellipse;whiteSpace=wrap;html=1;align=center;" vertex="1" parent="1">
          <mxGeometry x="810" y="240" width="100" height="40" as="geometry" />
        </mxCell>
        <mxCell id="V6hUc9vTks-GCPqnXJYq-45" value="C-TYPE" style="ellipse;whiteSpace=wrap;html=1;align=center;" vertex="1" parent="1">
          <mxGeometry x="830" y="310" width="100" height="40" as="geometry" />
        </mxCell>
        <mxCell id="V6hUc9vTks-GCPqnXJYq-46" value="C-INFORMATION" style="ellipse;whiteSpace=wrap;html=1;align=center;" vertex="1" parent="1">
          <mxGeometry x="820" y="360" width="100" height="40" as="geometry" />
        </mxCell>
        <mxCell id="V6hUc9vTks-GCPqnXJYq-47" value="" style="endArrow=none;html=1;rounded=0;entryX=0;entryY=0.5;entryDx=0;entryDy=0;exitX=1;exitY=0.25;exitDx=0;exitDy=0;" edge="1" parent="1" source="V6hUc9vTks-GCPqnXJYq-9" target="V6hUc9vTks-GCPqnXJYq-44">
          <mxGeometry relative="1" as="geometry">
            <mxPoint x="640" y="400" as="sourcePoint" />
            <mxPoint x="800" y="400" as="targetPoint" />
          </mxGeometry>
        </mxCell>
        <mxCell id="V6hUc9vTks-GCPqnXJYq-48" value="" style="endArrow=none;html=1;rounded=0;exitX=1;exitY=0.25;exitDx=0;exitDy=0;" edge="1" parent="1" source="V6hUc9vTks-GCPqnXJYq-9" target="V6hUc9vTks-GCPqnXJYq-45">
          <mxGeometry relative="1" as="geometry">
            <mxPoint x="640" y="400" as="sourcePoint" />
            <mxPoint x="800" y="400" as="targetPoint" />
          </mxGeometry>
        </mxCell>
        <mxCell id="V6hUc9vTks-GCPqnXJYq-49" value="" style="endArrow=none;html=1;rounded=0;entryX=0;entryY=0.5;entryDx=0;entryDy=0;exitX=1;exitY=0.25;exitDx=0;exitDy=0;" edge="1" parent="1" source="V6hUc9vTks-GCPqnXJYq-9" target="V6hUc9vTks-GCPqnXJYq-46">
          <mxGeometry relative="1" as="geometry">
            <mxPoint x="640" y="400" as="sourcePoint" />
            <mxPoint x="800" y="400" as="targetPoint" />
          </mxGeometry>
        </mxCell>
        <mxCell id="V6hUc9vTks-GCPqnXJYq-50" value="ODER-ITEM" style="shape=associativeEntity;whiteSpace=wrap;html=1;align=center;" vertex="1" parent="1">
          <mxGeometry x="170" y="660" width="120" height="60" as="geometry" />
        </mxCell>
        <mxCell id="V6hUc9vTks-GCPqnXJYq-51" value="DELIVERED-BY" style="shape=rhombus;perimeter=rhombusPerimeter;whiteSpace=wrap;html=1;align=center;" vertex="1" parent="1">
          <mxGeometry x="670" y="600" width="120" height="60" as="geometry" />
        </mxCell>
        <mxCell id="V6hUc9vTks-GCPqnXJYq-52" value="" style="fontSize=12;html=1;endArrow=ERmany;rounded=0;entryX=1;entryY=0.75;entryDx=0;entryDy=0;" edge="1" parent="1" target="V6hUc9vTks-GCPqnXJYq-3">
          <mxGeometry width="100" height="100" relative="1" as="geometry">
            <mxPoint x="630" y="580" as="sourcePoint" />
            <mxPoint x="490" y="460" as="targetPoint" />
            <Array as="points">
              <mxPoint x="730" y="600" />
              <mxPoint x="630" y="580" />
              <mxPoint x="620" y="500" />
            </Array>
          </mxGeometry>
        </mxCell>
        <mxCell id="V6hUc9vTks-GCPqnXJYq-54" value="PARTNERS" style="whiteSpace=wrap;html=1;align=center;" vertex="1" parent="1">
          <mxGeometry x="690" y="790" width="100" height="40" as="geometry" />
        </mxCell>
        <mxCell id="V6hUc9vTks-GCPqnXJYq-55" value="" style="fontSize=12;html=1;endArrow=ERone;endFill=1;rounded=0;exitX=0.5;exitY=1;exitDx=0;exitDy=0;entryX=0.407;entryY=-0.044;entryDx=0;entryDy=0;entryPerimeter=0;" edge="1" parent="1" source="V6hUc9vTks-GCPqnXJYq-51" target="V6hUc9vTks-GCPqnXJYq-54">
          <mxGeometry width="100" height="100" relative="1" as="geometry">
            <mxPoint x="760" y="820" as="sourcePoint" />
            <mxPoint x="840" y="945.9259711371528" as="targetPoint" />
          </mxGeometry>
        </mxCell>
        <mxCell id="V6hUc9vTks-GCPqnXJYq-56" value="P-ID" style="ellipse;whiteSpace=wrap;html=1;align=center;" vertex="1" parent="1">
          <mxGeometry x="840" y="730" width="100" height="40" as="geometry" />
        </mxCell>
        <mxCell id="V6hUc9vTks-GCPqnXJYq-57" value="P-NAME" style="ellipse;whiteSpace=wrap;html=1;align=center;" vertex="1" parent="1">
          <mxGeometry x="840" y="790" width="100" height="40" as="geometry" />
        </mxCell>
        <mxCell id="V6hUc9vTks-GCPqnXJYq-58" value="P-WORK" style="ellipse;whiteSpace=wrap;html=1;align=center;" vertex="1" parent="1">
          <mxGeometry x="840" y="840" width="100" height="40" as="geometry" />
        </mxCell>
        <mxCell id="V6hUc9vTks-GCPqnXJYq-59" value="" style="endArrow=none;html=1;rounded=0;exitX=1;exitY=0.5;exitDx=0;exitDy=0;entryX=0.051;entryY=0.725;entryDx=0;entryDy=0;entryPerimeter=0;" edge="1" parent="1" source="V6hUc9vTks-GCPqnXJYq-54" target="V6hUc9vTks-GCPqnXJYq-56">
          <mxGeometry relative="1" as="geometry">
            <mxPoint x="730" y="770" as="sourcePoint" />
            <mxPoint x="890" y="770" as="targetPoint" />
          </mxGeometry>
        </mxCell>
        <mxCell id="V6hUc9vTks-GCPqnXJYq-61" value="" style="endArrow=none;html=1;rounded=0;entryX=0;entryY=0.5;entryDx=0;entryDy=0;exitX=1;exitY=0.5;exitDx=0;exitDy=0;" edge="1" parent="1" source="V6hUc9vTks-GCPqnXJYq-54" target="V6hUc9vTks-GCPqnXJYq-57">
          <mxGeometry relative="1" as="geometry">
            <mxPoint x="730" y="770" as="sourcePoint" />
            <mxPoint x="890" y="770" as="targetPoint" />
          </mxGeometry>
        </mxCell>
        <mxCell id="V6hUc9vTks-GCPqnXJYq-62" value="" style="endArrow=none;html=1;rounded=0;entryX=0;entryY=0.5;entryDx=0;entryDy=0;exitX=1;exitY=0.5;exitDx=0;exitDy=0;" edge="1" parent="1" source="V6hUc9vTks-GCPqnXJYq-54" target="V6hUc9vTks-GCPqnXJYq-58">
          <mxGeometry relative="1" as="geometry">
            <mxPoint x="730" y="770" as="sourcePoint" />
            <mxPoint x="890" y="770" as="targetPoint" />
          </mxGeometry>
        </mxCell>
        <mxCell id="V6hUc9vTks-GCPqnXJYq-66" value="" style="fontSize=12;html=1;endArrow=ERone;endFill=1;rounded=0;exitX=0.5;exitY=0;exitDx=0;exitDy=0;" edge="1" parent="1" source="V6hUc9vTks-GCPqnXJYq-50">
          <mxGeometry width="100" height="100" relative="1" as="geometry">
            <mxPoint x="440" y="730" as="sourcePoint" />
            <mxPoint x="400" y="480" as="targetPoint" />
            <Array as="points">
              <mxPoint x="350" y="580" />
              <mxPoint x="400" y="540" />
            </Array>
          </mxGeometry>
        </mxCell>
        <mxCell id="V6hUc9vTks-GCPqnXJYq-69" value="" style="fontSize=12;html=1;endArrow=ERone;endFill=1;rounded=0;entryX=0.5;entryY=1;entryDx=0;entryDy=0;" edge="1" parent="1" target="V6hUc9vTks-GCPqnXJYq-50">
          <mxGeometry width="100" height="100" relative="1" as="geometry">
            <mxPoint x="230" y="820" as="sourcePoint" />
            <mxPoint x="540" y="640" as="targetPoint" />
          </mxGeometry>
        </mxCell>
        <mxCell id="V6hUc9vTks-GCPqnXJYq-70" value="MEAL" style="whiteSpace=wrap;html=1;align=center;" vertex="1" parent="1">
          <mxGeometry x="180" y="820" width="100" height="40" as="geometry" />
        </mxCell>
        <mxCell id="V6hUc9vTks-GCPqnXJYq-71" value="M-ID" style="ellipse;whiteSpace=wrap;html=1;align=center;" vertex="1" parent="1">
          <mxGeometry x="325" y="770" width="100" height="40" as="geometry" />
        </mxCell>
        <mxCell id="V6hUc9vTks-GCPqnXJYq-72" value="M-NAME" style="ellipse;whiteSpace=wrap;html=1;align=center;" vertex="1" parent="1">
          <mxGeometry x="350" y="820" width="100" height="40" as="geometry" />
        </mxCell>
        <mxCell id="V6hUc9vTks-GCPqnXJYq-73" value="" style="endArrow=none;html=1;rounded=0;entryX=0;entryY=0.5;entryDx=0;entryDy=0;exitX=1;exitY=0.5;exitDx=0;exitDy=0;" edge="1" parent="1" source="V6hUc9vTks-GCPqnXJYq-70" target="V6hUc9vTks-GCPqnXJYq-71">
          <mxGeometry relative="1" as="geometry">
            <mxPoint x="410" y="870" as="sourcePoint" />
            <mxPoint x="570" y="870" as="targetPoint" />
          </mxGeometry>
        </mxCell>
        <mxCell id="V6hUc9vTks-GCPqnXJYq-74" value="" style="endArrow=none;html=1;rounded=0;entryX=0.022;entryY=0.716;entryDx=0;entryDy=0;entryPerimeter=0;" edge="1" parent="1" target="V6hUc9vTks-GCPqnXJYq-72">
          <mxGeometry relative="1" as="geometry">
            <mxPoint x="280" y="840" as="sourcePoint" />
            <mxPoint x="570" y="870" as="targetPoint" />
          </mxGeometry>
        </mxCell>
        <mxCell id="V6hUc9vTks-GCPqnXJYq-75" value="" style="fontSize=12;html=1;endArrow=ERmany;rounded=0;entryX=0.5;entryY=1;entryDx=0;entryDy=0;" edge="1" parent="1" target="V6hUc9vTks-GCPqnXJYq-70">
          <mxGeometry width="100" height="100" relative="1" as="geometry">
            <mxPoint x="230" y="950" as="sourcePoint" />
            <mxPoint x="540" y="820" as="targetPoint" />
          </mxGeometry>
        </mxCell>
        <mxCell id="V6hUc9vTks-GCPqnXJYq-76" value="PREPARE IN" style="shape=rhombus;perimeter=rhombusPerimeter;whiteSpace=wrap;html=1;align=center;" vertex="1" parent="1">
          <mxGeometry x="170" y="950" width="120" height="60" as="geometry" />
        </mxCell>
        <mxCell id="V6hUc9vTks-GCPqnXJYq-77" value="KITCHEN" style="whiteSpace=wrap;html=1;align=center;" vertex="1" parent="1">
          <mxGeometry x="450" y="960" width="100" height="40" as="geometry" />
        </mxCell>
        <mxCell id="V6hUc9vTks-GCPqnXJYq-78" value="" style="edgeStyle=entityRelationEdgeStyle;fontSize=12;html=1;endArrow=ERone;endFill=1;rounded=0;exitX=1;exitY=0.5;exitDx=0;exitDy=0;" edge="1" parent="1" source="V6hUc9vTks-GCPqnXJYq-76" target="V6hUc9vTks-GCPqnXJYq-77">
          <mxGeometry width="100" height="100" relative="1" as="geometry">
            <mxPoint x="580" y="1030" as="sourcePoint" />
            <mxPoint x="680" y="930" as="targetPoint" />
          </mxGeometry>
        </mxCell>
        <mxCell id="V6hUc9vTks-GCPqnXJYq-79" value="K-ID" style="ellipse;whiteSpace=wrap;html=1;align=center;" vertex="1" parent="1">
          <mxGeometry x="630" y="920" width="100" height="40" as="geometry" />
        </mxCell>
        <mxCell id="V6hUc9vTks-GCPqnXJYq-80" value="K-NAME" style="ellipse;whiteSpace=wrap;html=1;align=center;" vertex="1" parent="1">
          <mxGeometry x="620" y="990" width="100" height="40" as="geometry" />
        </mxCell>
        <mxCell id="V6hUc9vTks-GCPqnXJYq-81" value="" style="endArrow=none;html=1;rounded=0;" edge="1" parent="1">
          <mxGeometry relative="1" as="geometry">
            <mxPoint x="550" y="980" as="sourcePoint" />
            <mxPoint x="630" y="940" as="targetPoint" />
          </mxGeometry>
        </mxCell>
        <mxCell id="V6hUc9vTks-GCPqnXJYq-82" value="" style="endArrow=none;html=1;rounded=0;" edge="1" parent="1" target="V6hUc9vTks-GCPqnXJYq-80">
          <mxGeometry relative="1" as="geometry">
            <mxPoint x="550" y="980" as="sourcePoint" />
            <mxPoint x="710" y="980" as="targetPoint" />
          </mxGeometry>
        </mxCell>
        <mxCell id="V6hUc9vTks-GCPqnXJYq-83" value="O-ID" style="ellipse;whiteSpace=wrap;html=1;align=center;" vertex="1" parent="1">
          <mxGeometry x="10" y="580" width="100" height="40" as="geometry" />
        </mxCell>
        <mxCell id="V6hUc9vTks-GCPqnXJYq-84" value="O-NAME" style="ellipse;whiteSpace=wrap;html=1;align=center;" vertex="1" parent="1">
          <mxGeometry x="-70" y="650" width="100" height="40" as="geometry" />
        </mxCell>
        <mxCell id="V6hUc9vTks-GCPqnXJYq-85" value="O-QUANTITY" style="ellipse;whiteSpace=wrap;html=1;align=center;" vertex="1" parent="1">
          <mxGeometry y="710" width="100" height="40" as="geometry" />
        </mxCell>
        <mxCell id="V6hUc9vTks-GCPqnXJYq-86" value="" style="endArrow=none;html=1;rounded=0;exitX=1;exitY=0.5;exitDx=0;exitDy=0;entryX=0;entryY=0.5;entryDx=0;entryDy=0;" edge="1" parent="1" source="V6hUc9vTks-GCPqnXJYq-83" target="V6hUc9vTks-GCPqnXJYq-50">
          <mxGeometry relative="1" as="geometry">
            <mxPoint x="540" y="660" as="sourcePoint" />
            <mxPoint x="700" y="660" as="targetPoint" />
          </mxGeometry>
        </mxCell>
        <mxCell id="V6hUc9vTks-GCPqnXJYq-87" value="" style="endArrow=none;html=1;rounded=0;exitX=1;exitY=0.5;exitDx=0;exitDy=0;" edge="1" parent="1" source="V6hUc9vTks-GCPqnXJYq-84">
          <mxGeometry relative="1" as="geometry">
            <mxPoint x="540" y="660" as="sourcePoint" />
            <mxPoint x="170" y="690" as="targetPoint" />
          </mxGeometry>
        </mxCell>
        <mxCell id="V6hUc9vTks-GCPqnXJYq-88" value="" style="endArrow=none;html=1;rounded=0;exitX=1;exitY=0.5;exitDx=0;exitDy=0;entryX=0;entryY=0.5;entryDx=0;entryDy=0;" edge="1" parent="1" source="V6hUc9vTks-GCPqnXJYq-85" target="V6hUc9vTks-GCPqnXJYq-50">
          <mxGeometry relative="1" as="geometry">
            <mxPoint x="540" y="660" as="sourcePoint" />
            <mxPoint x="700" y="660" as="targetPoint" />
          </mxGeometry>
        </mxCell>
      </root>
    </mxGraphModel>
  </diagram>
</mxfile>
